<?xml version="1.0" standalone="no"?>
<!DOCTYPE svg PUBLIC "-//W3C//DTD SVG 20010904//EN"
 "http://www.w3.org/TR/2001/REC-SVG-20010904/DTD/svg10.dtd">
<svg version="1.0" xmlns="http://www.w3.org/2000/svg"
 width="1476.000000pt" height="1476.000000pt" viewBox="0 0 1476.000000 1476.000000"
 preserveAspectRatio="xMidYMid meet">
<metadata>
Created by potrace 1.14, written by Peter Selinger 2001-2017
</metadata>
<g transform="translate(0.000000,1476.000000) scale(0.100000,-0.100000)"
fill="#000000" stroke="none">
<path d="M2895 14749 c-1087 -104 -2052 -762 -2550 -1740 -184 -362 -288 -711
-330 -1113 -13 -128 -15 -662 -15 -4525 0 -2911 3 -4414 10 -4482 151 -1524
1355 -2728 2879 -2879 143 -14 8839 -14 8982 0 1524 151 2728 1355 2879 2879
7 68 10 1571 10 4482 0 3863 -2 4397 -15 4525 -42 402 -146 751 -330 1113
-502 986 -1466 1639 -2570 1741 -137 12 -8817 11 -8950 -1z m2083 -2208 c661
-101 1218 -449 1573 -984 137 -208 256 -466 334 -727 34 -116 76 -282 72 -286
-2 -3 -1420 -104 -1452 -104 -17 0 -29 20 -65 112 -107 273 -263 455 -475 558
-155 75 -207 85 -430 84 -225 0 -290 -14 -450 -93 -285 -141 -477 -401 -542
-730 -24 -125 -22 -366 4 -491 79 -370 354 -663 705 -751 105 -26 321 -36 439
-20 224 30 368 95 511 230 165 156 262 360 311 654 l21 127 45 -5 c25 -2 344
-12 709 -22 364 -9 667 -20 674 -24 9 -6 6 -39 -10 -136 -67 -382 -149 -647
-292 -938 -145 -297 -321 -530 -545 -723 -381 -328 -837 -501 -1405 -532 -484
-26 -905 51 -1290 237 -242 116 -426 246 -624 441 -442 433 -667 961 -693
1622 -16 429 76 867 259 1223 187 363 513 716 873 942 303 191 686 317 1077
355 152 14 513 4 666 -19z m5532 -5532 c504 -54 1013 -292 1400 -656 307 -289
564 -725 669 -1136 186 -723 37 -1463 -414 -2062 -347 -461 -867 -791 -1430
-908 -197 -41 -298 -51 -520 -51 -290 1 -502 33 -755 115 -842 274 -1486 1003
-1639 1859 -91 506 -24 1017 193 1465 201 415 472 732 831 970 509 338 1049
469 1665 404z"/>
<path d="M10000 5665 c-229 -51 -392 -146 -568 -329 -199 -208 -292 -438 -292
-723 0 -258 71 -463 229 -663 219 -276 538 -422 891 -407 291 13 537 127 739
343 168 180 256 371 283 617 32 298 -67 594 -277 824 -133 147 -338 274 -520
324 -105 28 -384 36 -485 14z"/>
</g>
</svg>
