<?xml version="1.0" standalone="no"?>
<!DOCTYPE svg PUBLIC "-//W3C//DTD SVG 20010904//EN"
 "http://www.w3.org/TR/2001/REC-SVG-20010904/DTD/svg10.dtd">
<svg version="1.0" xmlns="http://www.w3.org/2000/svg"
 width="700.000000pt" height="700.000000pt" viewBox="0 0 700.000000 700.000000"
 preserveAspectRatio="xMidYMid meet">
<metadata>
Created by potrace 1.11, written by Peter Selinger 2001-2013
</metadata>
<g transform="translate(0.000000,700.000000) scale(0.100000,-0.100000)"
fill="#000000" stroke="none">
<path d="M2086 5853 c-120 -15 -152 -25 -206 -64 -54 -39 -94 -104 -115 -187
-9 -37 -29 -94 -43 -127 -44 -103 -59 -233 -56 -470 1 -115 5 -250 8 -300 3
-49 8 -148 11 -220 9 -213 14 -314 20 -425 10 -180 14 -271 20 -390 5 -105 11
-220 20 -340 2 -25 6 -88 9 -140 4 -52 9 -111 11 -130 2 -19 7 -73 10 -120 3
-47 8 -101 10 -120 2 -19 7 -71 10 -115 3 -44 8 -91 10 -105 2 -14 6 -54 10
-90 15 -145 41 -291 81 -452 87 -347 250 -596 451 -688 26 -12 55 -25 65 -30
16 -9 142 -34 228 -45 47 -6 298 -41 361 -50 20 -3 54 -8 75 -10 22 -3 55 -7
74 -10 38 -6 77 -11 160 -21 30 -3 64 -8 75 -10 11 -2 40 -6 65 -9 25 -3 61
-8 80 -10 19 -2 58 -7 85 -10 28 -3 69 -7 92 -10 158 -18 360 -24 457 -12 169
19 245 94 384 377 109 224 144 362 148 590 3 172 -8 238 -52 302 -31 45 -69
61 -142 61 -95 1 -209 -24 -467 -102 -221 -66 -371 -75 -466 -28 -69 34 -103
80 -134 180 -32 101 -36 130 -40 312 -5 230 37 453 99 523 44 50 115 81 174
76 85 -8 156 -55 492 -329 343 -280 384 -306 464 -299 57 6 120 47 172 112 84
107 225 414 281 612 22 79 65 244 69 268 3 13 15 74 29 135 13 62 26 126 29
142 15 78 39 212 41 230 12 77 17 106 25 150 5 28 11 66 14 85 10 77 19 136
22 155 30 157 39 326 23 414 -30 160 -143 275 -351 357 -104 40 -374 101 -573
129 -23 3 -50 7 -60 9 -11 2 -42 7 -70 10 -27 4 -62 9 -76 11 -24 4 -55 9
-141 20 -21 3 -115 17 -210 31 -95 14 -189 27 -208 30 -19 2 -48 6 -65 9 -35
5 -354 52 -405 59 -19 3 -73 10 -120 16 -47 6 -96 13 -110 15 -14 2 -50 7 -80
11 -30 3 -65 7 -78 9 -291 38 -536 48 -696 28z"/>
</g>
</svg>
